HIERARCHY
ROOT Hips
{
    OFFSET   0.000000   0.000000   0.000000
    CHANNELS 6 Xposition Yposition Zposition Zrotation Xrotation Yrotation
    JOINT Chest
    {
        OFFSET   0.000000   8.007240   0.000000
        CHANNELS 3 Zrotation Xrotation Yrotation
        JOINT Chest2
        {
            OFFSET   0.000000  22.077100   0.000000
            CHANNELS 3 Zrotation Xrotation Yrotation
            JOINT Neck
            {
                OFFSET   0.000000  23.254800   0.000000
                CHANNELS 3 Zrotation Xrotation Yrotation
                JOINT Head
                {
                    OFFSET   0.000000  14.370000   1.956600
                    CHANNELS 3 Zrotation Xrotation Yrotation
                    End Site
                    {
                        OFFSET   0.000000  19.566000   0.000000
                    }
                }
            }
            JOINT LeftCollar
            {
                OFFSET   3.911900  19.017000  -0.467064
                CHANNELS 3 Zrotation Xrotation Yrotation
                JOINT LeftShoulder
                {
                    OFFSET  10.383700   0.000000   0.000000
                    CHANNELS 3 Zrotation Xrotation Yrotation
                    JOINT LeftElbow
                    {
                        OFFSET  26.662100   0.001476   0.000517
                        CHANNELS 3 Zrotation Xrotation Yrotation
                        JOINT LeftWrist
                        {
                            OFFSET  28.869000  -0.000025  -0.000106
                            CHANNELS 3 Zrotation Xrotation Yrotation
                            JOINT LeftFinger0
                            {
                                OFFSET   2.044660  -2.323460   3.252850
                                CHANNELS 3 Zrotation Xrotation Yrotation
                                JOINT LeftFinger01
                                {
                                    OFFSET   3.088130   0.000000   0.000000
                                    CHANNELS 3 Zrotation Xrotation Yrotation
                                    JOINT LeftFinger02
                                    {
                                        OFFSET   2.639460   0.000000   0.000000
                                        CHANNELS 3 Zrotation Xrotation Yrotation
                                        End Site
                                        {
                                            OFFSET   2.582190   0.000000   0.000000
                                        }
                                    }
                                }
                            }
                            JOINT LeftFinger1
                            {
                                OFFSET   8.364480   0.000000   3.252850
                                CHANNELS 3 Zrotation Xrotation Yrotation
                                JOINT LeftFinger11
                                {
                                    OFFSET   4.646930   0.000000   0.000000
                                    CHANNELS 3 Zrotation Xrotation Yrotation
                                    JOINT LeftFinger12
                                    {
                                        OFFSET   2.323460   0.000000   0.000000
                                        CHANNELS 3 Zrotation Xrotation Yrotation
                                        End Site
                                        {
                                            OFFSET   2.273050   0.000000   0.000000
                                        }
                                    }
                                }
                            }
                            JOINT LeftFinger2
                            {
                                OFFSET   8.364490   0.000015   1.078090
                                CHANNELS 3 Zrotation Xrotation Yrotation
                                JOINT LeftFinger21
                                {
                                    OFFSET   5.111620   0.000000   0.000000
                                    CHANNELS 3 Zrotation Xrotation Yrotation
                                    JOINT LeftFinger22
                                    {
                                        OFFSET   2.788160   0.000016   0.000000
                                        CHANNELS 3 Zrotation Xrotation Yrotation
                                        End Site
                                        {
                                            OFFSET   2.727660   0.000000   0.000000
                                        }
                                    }
                                }
                            }
                            JOINT LeftFinger3
                            {
                                OFFSET   7.899780   0.000017  -1.078090
                                CHANNELS 3 Zrotation Xrotation Yrotation
                                JOINT LeftFinger31
                                {
                                    OFFSET   4.646930   0.000000   0.000000
                                    CHANNELS 3 Zrotation Xrotation Yrotation
                                    JOINT LeftFinger32
                                    {
                                        OFFSET   2.323470   0.000000   0.000000
                                        CHANNELS 3 Zrotation Xrotation Yrotation
                                        End Site
                                        {
                                            OFFSET   2.273050   0.000000   0.000000
                                        }
                                    }
                                }
                            }
                            JOINT LeftFinger4
                            {
                                OFFSET   7.435090   0.000000  -3.252850
                                CHANNELS 3 Zrotation Xrotation Yrotation
                                JOINT LeftFinger41
                                {
                                    OFFSET   3.717550   0.000000   0.000000
                                    CHANNELS 3 Zrotation Xrotation Yrotation
                                    JOINT LeftFinger42
                                    {
                                        OFFSET   1.858770   0.000000   0.000000
                                        CHANNELS 3 Zrotation Xrotation Yrotation
                                        End Site
                                        {
                                            OFFSET   1.818440   0.000000   0.000000
                                        }
                                    }
                                }
                            }
                        }
                    }
                }
            }
            JOINT RightCollar
            {
                OFFSET  -3.911900  19.017000  -0.467063
                CHANNELS 3 Zrotation Xrotation Yrotation
                JOINT RightShoulder
                {
                    OFFSET -10.383700   0.000019   0.000000
                    CHANNELS 3 Zrotation Xrotation Yrotation
                    JOINT RightElbow
                    {
                        OFFSET -26.662100   0.001175   0.000102
                        CHANNELS 3 Zrotation Xrotation Yrotation
                        JOINT RightWrist
                        {
                            OFFSET -28.869000   0.000016  -0.000079
                            CHANNELS 3 Zrotation Xrotation Yrotation
                            JOINT RightFinger0
                            {
                                OFFSET  -2.044660  -2.323490   3.252850
                                CHANNELS 3 Zrotation Xrotation Yrotation
                                JOINT RightFinger01
                                {
                                    OFFSET  -3.088140   0.000000   0.000000
                                    CHANNELS 3 Zrotation Xrotation Yrotation
                                    JOINT RightFinger02
                                    {
                                        OFFSET  -2.639460   0.000000   0.000000
                                        CHANNELS 3 Zrotation Xrotation Yrotation
                                        End Site
                                        {
                                            OFFSET  -2.582190   0.000000   0.000000
                                        }
                                    }
                                }
                            }
                            JOINT RightFinger1
                            {
                                OFFSET  -8.364480   0.000000   3.252850
                                CHANNELS 3 Zrotation Xrotation Yrotation
                                JOINT RightFinger11
                                {
                                    OFFSET  -4.646930   0.000000   0.000000
                                    CHANNELS 3 Zrotation Xrotation Yrotation
                                    JOINT RightFinger12
                                    {
                                        OFFSET  -2.323470   0.000000   0.000000
                                        CHANNELS 3 Zrotation Xrotation Yrotation
                                        End Site
                                        {
                                            OFFSET  -2.273050   0.000000   0.000000
                                        }
                                    }
                                }
                            }
                            JOINT RightFinger2
                            {
                                OFFSET  -8.364480   0.000000   1.078090
                                CHANNELS 3 Zrotation Xrotation Yrotation
                                JOINT RightFinger21
                                {
                                    OFFSET  -5.111620   0.000000   0.000000
                                    CHANNELS 3 Zrotation Xrotation Yrotation
                                    JOINT RightFinger22
                                    {
                                        OFFSET  -2.788160   0.000000   0.000000
                                        CHANNELS 3 Zrotation Xrotation Yrotation
                                        End Site
                                        {
                                            OFFSET  -2.727660   0.000000   0.000000
                                        }
                                    }
                                }
                            }
                            JOINT RightFinger3
                            {
                                OFFSET  -7.899780   0.000000  -1.078090
                                CHANNELS 3 Zrotation Xrotation Yrotation
                                JOINT RightFinger31
                                {
                                    OFFSET  -4.646930   0.000000   0.000000
                                    CHANNELS 3 Zrotation Xrotation Yrotation
                                    JOINT RightFinger32
                                    {
                                        OFFSET  -2.323470   0.000000   0.000000
                                        CHANNELS 3 Zrotation Xrotation Yrotation
                                        End Site
                                        {
                                            OFFSET  -2.273050   0.000000   0.000000
                                        }
                                    }
                                }
                            }
                            JOINT RightFinger4
                            {
                                OFFSET  -7.435090   0.000000  -3.252850
                                CHANNELS 3 Zrotation Xrotation Yrotation
                                JOINT RightFinger41
                                {
                                    OFFSET  -3.717550   0.000000   0.000000
                                    CHANNELS 3 Zrotation Xrotation Yrotation
                                    JOINT RightFinger42
                                    {
                                        OFFSET  -1.858770   0.000000   0.000000
                                        CHANNELS 3 Zrotation Xrotation Yrotation
                                        End Site
                                        {
                                            OFFSET  -1.818440   0.000000   0.000000
                                        }
                                    }
                                }
                            }
                        }
                    }
                }
            }
        }
    }
    JOINT LeftHip
    {
        OFFSET   9.783040   0.000000   0.000000
        CHANNELS 3 Zrotation Xrotation Yrotation
        JOINT LeftKnee
        {
            OFFSET   0.000032 -41.789100  -0.002222
            CHANNELS 3 Zrotation Xrotation Yrotation
            JOINT LeftAnkle
            {
                OFFSET   0.000087 -41.133200  -0.000135
                CHANNELS 3 Zrotation Xrotation Yrotation
                JOINT LeftToe
                {
                    OFFSET   0.000000  -6.358960  14.674500
                    CHANNELS 3 Zrotation Xrotation Yrotation
                    End Site
                    {
                        OFFSET   0.000000   0.000000   3.913200
                    }
                }
            }
        }
    }
    JOINT RightHip
    {
        OFFSET  -9.783040   0.000000   0.000000
        CHANNELS 3 Zrotation Xrotation Yrotation
        JOINT RightKnee
        {
            OFFSET   0.000047 -41.789100  -0.000896
            CHANNELS 3 Zrotation Xrotation Yrotation
            JOINT RightAnkle
            {
                OFFSET  -0.000117 -41.133300  -0.000248
                CHANNELS 3 Zrotation Xrotation Yrotation
                JOINT RightToe
                {
                    OFFSET   0.000000  -6.358970  14.674500
                    CHANNELS 3 Zrotation Xrotation Yrotation
                    End Site
                    {
                        OFFSET   0.000000   0.000000   3.913200
                    }
                }
            }
        }
    }
}
MOTION
Frames: 4
Frame Time:   0.016667
  1.039740  89.485500   0.824274  -1.062840 -13.870100   5.899330   1.392670  10.078600   1.765540   2.524570  20.193500   3.357070  -0.790465  -3.088110  -0.048684  -1.308770  -6.258410   0.661210 -11.738400  -5.329540  -0.806243 -64.782800  22.999100 -13.647100  -2.052890  -4.270180 -10.716600   9.559370  -1.936290  12.878400  43.276500  35.302500 -67.560900 -26.905800   0.007002   0.003611  -8.452880   0.002411  -0.000564 -42.502000   8.154940  -8.798860 -35.286700   0.010992   0.013402 -25.329500   0.007567   0.009773 -33.879800   2.837580  -4.217320 -50.974400   0.022689   0.033968 -33.949000   0.010333   0.025399 -34.550600  -0.742695   1.078310 -51.836500  -0.001502  -0.000368 -34.523100  -0.002982   0.003638 -48.124300  -3.801060   3.401010 -72.355600   0.000000  -0.004147 -48.188900   0.001035  -0.001525   3.557950  -8.535290  15.862800  43.790200  -2.527990  68.450000 -13.097900 -15.543200  29.416100  23.206600 -61.433000  44.890500 -33.292000  36.893000  73.418300  46.244700   0.003107  -0.003158  20.751100   0.005179   0.003304  27.888100   3.201060   5.362100  22.937200   0.026610  -0.047324  16.058700   0.004173  -0.041922  79.551700  -0.000304   0.000347  79.551700  -0.000968   0.000224  59.663800   0.000454   0.001661  81.593100  -4.945830  -0.729841  81.624700   0.004516  -0.000953  61.218500  -0.000137   0.001458  85.035500  -9.961420  -0.860797 110.000000  -0.009167  -0.008843  80.000000   0.000167   0.001850   4.446580  18.217800  -0.382948   1.468970   0.396638   0.660107  -4.214190  -3.878380  -4.034940  -0.000000   0.000000   0.000000   1.780240  12.911300  -5.291290   1.638840   6.135110  -2.578530  -4.540510  -4.185900  -3.288110  -0.000000   0.000000   0.000000
  1.034470  89.480700   0.852531  -1.049170 -13.825500   5.992870   1.388150  10.057400   1.755630   2.516810  20.150800   3.338210  -0.772162  -3.101650  -0.048319  -1.278570  -6.285900   0.584186 -11.719000  -5.316920  -0.805054 -64.715000  23.076600 -13.736400  -2.027100  -4.264030 -10.815600   9.616740  -1.979390  12.868100  43.333600  35.302700 -67.584700 -26.807500   0.007020   0.003604  -8.403720   0.002382  -0.000492 -42.521400   8.151890  -8.790020 -35.303700   0.006871   0.010418 -25.345400   0.004683   0.007480 -33.875200   2.913760  -4.330190 -50.977800   0.006613   0.011103 -33.951200   0.004010   0.007710 -34.580800  -0.743292   1.077960 -51.881600  -0.001400  -0.000499 -34.553100  -0.003272   0.003609 -48.160100  -3.814540   3.408750 -72.410300   0.000000  -0.004178 -48.225300   0.001119  -0.001432   3.554400  -8.530720  15.835000  43.923200  -2.547650  68.288400 -13.205200 -15.626900  29.916600  25.267400 -59.975900  46.468700 -33.130300  36.755600  73.192100  46.473700   0.003072  -0.003089  20.995900   0.005049   0.003296  35.911800   3.797330   5.373010  29.534100   0.037924  -0.059501  20.939300   0.008037  -0.054995  80.167300  -0.000191   0.000308  80.167400  -0.000879   0.000097  60.125500   0.000369   0.001642  81.989400  -4.951200  -0.695831  82.019500   0.004529  -0.000943  61.514600  -0.000156   0.001441  85.378100  -9.967960  -0.801651 110.000000  -0.009151  -0.008880  80.000000   0.000077   0.001843   4.472610  18.170100  -0.381677   1.452710   0.412151   0.616310  -4.219800  -3.889100  -4.084520  -0.000000   0.000000   0.000000   1.793760  12.882000  -5.279240   1.644900   6.130190  -2.634560  -4.546970  -4.191880  -3.338660   0.000000   0.000000  -0.000000
  1.033240  89.476000   0.881023  -1.025110 -13.786300   6.105630   1.380670  10.038900   1.739360   2.504930  20.113300   3.306450  -0.753673  -3.110820  -0.047979  -1.248030  -6.304540   0.523535 -11.705100  -5.307160  -0.808063 -64.616800  23.183400 -13.846300  -2.006540  -4.296310 -10.908000   9.657090  -2.007740  12.870000  43.352400  35.300500 -67.584300 -26.768100   0.007027   0.003607  -8.384060   0.002341  -0.000424 -42.529800   8.154620  -8.791260 -35.311200   0.002924   0.004789 -25.352300   0.001990   0.003440 -33.881400   2.947450  -4.378280 -50.990700   0.000899   0.005899 -33.959800   0.003183   0.003232 -34.603300  -0.738172   1.069650 -51.915300  -0.001292  -0.000624 -34.575600  -0.003558   0.003583 -48.189000  -3.825430   3.415010 -72.454500   0.000000  -0.004206 -48.254700   0.001200  -0.001335   3.545760  -8.486390  15.799800  44.006100  -2.547770  67.999100 -13.315500 -15.741000  30.601800  27.308700 -58.171100  47.893000 -33.212700  36.914100  73.326400  46.457600   0.003027  -0.003032  20.978500   0.004907   0.003287  42.866600   3.624090   4.356320  35.186200   0.025325  -0.040971  25.473800   0.004177  -0.040136  80.684200  -0.000101   0.000270  80.684200  -0.000785  -0.000052  60.513100   0.000274   0.001622  82.045600  -4.951630  -0.691006  82.075500   0.004540  -0.000946  61.556600  -0.000171   0.001422  85.392500  -9.969790  -0.799151 110.000000  -0.009138  -0.008903  80.000000  -0.000024   0.001837   4.489480  18.136000  -0.378940   1.439510   0.399302   0.567080  -4.225640  -3.877610  -4.148750   0.000000   0.000000  -0.000000   1.801630  12.856900  -5.285620   1.648790   6.140750  -2.663350  -4.555020  -4.210530  -3.417600   0.000000   0.000000   0.000000
  1.033070  89.471700   0.909123  -0.996708 -13.752300   6.231200   1.373230  10.022900   1.717090   2.494170  20.080700   3.262370  -0.744193  -3.117260  -0.047659  -1.232310  -6.317660   0.495652 -11.697800  -5.294670  -0.811069 -64.516200  23.246800 -13.963300  -1.988600  -4.328580 -10.998900   9.696700  -2.038470  12.882500  43.364200  35.294100 -67.573900 -26.756300   0.007034   0.003622  -8.378160   0.002292  -0.000356 -42.533100   8.163300  -8.798480 -35.314500   0.000000   0.000593 -25.355400  -0.000359   0.000416 -33.894300   2.959170  -4.394170 -51.011700  -0.000457   0.005156 -33.973800   0.003065   0.002082 -34.623600  -0.724005   1.048380 -51.945300  -0.001176  -0.000737 -34.595600  -0.003836   0.003560 -48.214100  -3.834870   3.420440 -72.492800   0.000000  -0.004232 -48.280300   0.001280  -0.001236   3.532110  -8.402010  15.763000  44.061300  -2.532310  67.660600 -13.451600 -15.818200  31.409400  28.919700 -56.433200  48.880800 -33.402700  37.198600  73.619400  46.344800   0.002973  -0.002968  20.856900   0.004756   0.003277  48.567500   3.282680   2.888530  39.799700   0.007562  -0.015553  29.347600  -0.001318  -0.018476  80.946500   0.000000   0.000225  80.946400  -0.000695  -0.000193  60.709800   0.000178   0.001603  82.053600  -4.951690  -0.690317  82.083500   0.004554  -0.000949  61.562600  -0.000183   0.001404  85.394500  -9.970050  -0.798794 110.000000  -0.009122  -0.008925  80.000000  -0.000124   0.001830   4.502410  18.106100  -0.375580   1.426520   0.386453   0.513866  -4.232180  -3.866080  -4.220490   0.000000   0.000000   0.000000   1.807840  12.837200  -5.297430   1.652800   6.160750  -2.688060  -4.565470  -4.238210  -3.508970   0.000000   0.000000   0.000000
